<?xml version="1.0" encoding="utf-8"?>
<!-- Generator: Adobe Illustrator 19.1.0, SVG Export Plug-In . SVG Version: 6.00 Build 0)  -->
<!DOCTYPE svg PUBLIC "-//W3C//DTD SVG 1.1//EN" "http://www.w3.org/Graphics/SVG/1.1/DTD/svg11.dtd">
<svg version="1.1" id="Layer_1" xmlns="http://www.w3.org/2000/svg" xmlns:xlink="http://www.w3.org/1999/xlink" x="0px" y="0px"
	 viewBox="0 0 312.4 145.4" style="enable-background:new 0 0 312.4 145.4;" xml:space="preserve">
<style type="text/css">
	.st0{fill:#A7A9AC;}
	.st1{fill:#2CB3C4;}
	.st2{fill:#E44F26;}
	.st3{fill:#4E6374;}
</style>
<polygon class="st0" points="64.5,7.8 102.5,7.8 130.9,136.5 92.8,135.5 "/>
<g>
	<path class="st1" d="M101.9,12.4c2.2-5-0.5-9.2-6-9.2H73.6c-5.5,0-11.8,4.1-14,9.2L7.4,130.8c-2.2,5,0.5,9.2,6,9.2h22.3
		c5.5,0,11.8-4.1,14-9.2L101.9,12.4z"/>
</g>
<polygon class="st2" points="188.6,8.3 149.9,7.1 158.6,109.3 197.1,110.4 "/>
<polygon class="st2" points="248.6,8.2 210,7.1 213.2,134.8 252.1,136.1 "/>
<g>
	<path class="st3" d="M247.7,12.2c2.4-4.9-0.1-9-5.6-9h-22.3c-5.5,0-12,4-14.4,9l-45.9,92.9c-2.4,4.9,0.1,9,5.6,9h22.3
		c5.5,0,12-4,14.4-9L247.7,12.2z"/>
</g>
<g>
	<path class="st3" d="M308.4,12.4c2.2-5-0.5-9.2-6-9.2h-22.3c-5.5,0-11.8,4.1-14,9.2L214,130.8c-2.2,5,0.5,9.2,6,9.2h22.3
		c5.5,0,11.8-4.1,14-9.2L308.4,12.4z"/>
</g>
<g>
	<path class="st3" d="M187.9,12.4c2.2-5-0.5-9.2-6-9.2h-22.3c-5.5,0-11.8,4.1-14,9.2L93.4,130.8c-2.2,5,0.5,9.2,6,9.2h22.3
		c5.5,0,11.8-4.1,14-9.2L187.9,12.4z"/>
</g>
</svg>
